<svg width="48" height="48" viewBox="0 0 48 48" fill="none" xmlns="http://www.w3.org/2000/svg">
  <circle cx="24" cy="24" r="24" fill="#25D366"/>
  <path d="M24 10C16.27 10 10 16.27 10 24c0 2.46.62 4.79 1.73 6.84L9 38l8.5-2.67C19.15 37.25 20.54 37.5 24 37.5c7.73 0 14-6.27 14-14S31.73 10 24 10zm7.57 21.45c-1.77 1.77-4.38 2.77-7.07 2.77-1.97 0-3.84-.52-5.45-1.48l-.39-.21-4.03 1.27 1.29-4.07-.23-.36C13.03 26.94 12.5 25.55 12.5 24c0-5.52 4.48-10 10-10s10 4.48 10 10c0 2.68-1 5.3-2.93 7.45z" fill="white"/>
</svg>
