<svg width="32" height="32" viewBox="0 0 32 32" fill="none" xmlns="http://www.w3.org/2000/svg">
  <rect width="32" height="32" rx="8" fill="#25D366"/>
  <path d="M16 2C8.27 2 2 8.27 2 16c0 2.46.62 4.79 1.73 6.84L2.5 30l8.5-2.67C13.15 29.25 14.54 29.5 16 29.5c7.73 0 14-6.27 14-14S23.73 2 16 2zm7.57 21.45c-1.77 1.77-4.38 2.77-7.07 2.77-1.97 0-3.84-.52-5.45-1.48l-.39-.21-4.03 1.27 1.29-4.07-.23-.36C5.03 18.94 4.5 17.55 4.5 16c0-5.52 4.48-10 10-10s10 4.48 10 10c0 2.68-1 5.3-2.93 7.45zM21 15c-.55 0-1-.45-1-1 0-.55.45-1 1-1s1 .45 1 1c0 .55-.45 1-1 1zm-4 0c-.55 0-1-.45-1-1 0-.55.45-1 1-1s1 .45 1 1c0 .55-.45 1-1 1zm8 0c-.55 0-1-.45-1-1 0-.55.45-1 1-1s1 .45 1 1c0 .55-.45 1-1 1z" fill="white"/>
</svg>
